#!OML:ASF H:\Terrain\Patient Classification 1\Terrain2\Thursday\justin.ASF
:FULLY-SPECIFIED
:DEGREES
2589
root 19.4949 24.1255 18.4717 721.862 -376.525 -0.726361
lowerback 5.62335 0.321116 -0.323256
upperback 2.83092 0.417821 2.5788
thorax -0.261419 0.183877 2.80981
lowerneck -12.3663 -2.6297 -9.10318
upperneck 40.7774 -3.87354 5.45706
head 17.3299 -2.36619 3.42115
rclavicle -6.65929e-015 -3.97569e-015
rhumerus -29.5206 -7.5379 -79.7313
rradius 32.2126
rwrist -9.84764
rhand -18.54 14.0484
rfingers 7.12502
rthumb 7.7492 -15.7896
lclavicle -6.65929e-015 -3.97569e-015
lhumerus -30.6479 5.76397 87.3686
lradius 37.5296
lwrist -0.592338
lhand -15.4356 25.4318
lfingers 7.12502
lthumb 10.7446 55.137
rfemur -13.4214 -14.7371 25.2492
rtibia 32.2652
rfoot -19.4702 -9.37804
rtoes 17.4005
lfemur -14.9354 4.85458 -18.8309
ltibia 30.2281
lfoot -13.4147 -3.61204
ltoes 3.67476
2590
root 19.4824 24.1229 18.4793 721.897 -377.027 -0.610443
lowerback 5.67777 0.273792 -0.44975
upperback 2.81131 0.349075 2.55515
thorax -0.308825 0.148882 2.86057
lowerneck -12.2754 -2.59392 -8.95839
upperneck 40.7638 -3.86916 5.41005
head 17.2904 -2.3533 3.37179
rclavicle -4.82053e-014 -1.11319e-014
rhumerus -29.5422 -7.93051 -79.4598
rradius 32.211
rwrist -10.0205
rhand -17.1603 15.5033
rfingers 7.12502
rthumb 9.08071 -14.2812
lclavicle -4.82053e-014 -1.11319e-014
lhumerus -30.6349 5.91726 87.4474
lradius 36.7112
lwrist -1.09841
lhand -17.7052 23.4618
lfingers 7.12502
lthumb 8.55481 53.2685
rfemur -13.3908 -14.7039 25.121
rtibia 32.1649
rfoot -19.4296 -8.76503
rtoes 17.7072
lfemur -15.1411 4.6794 -18.9069
ltibia 30.6857
lfoot -13.4996 -2.96688
ltoes 3.14157
2591
root 19.4746 24.1261 18.4847 721.987 -377.659 -0.498999
lowerback 5.64552 0.28755 -0.499699
upperback 2.81867 0.363624 2.47958
thorax -0.283998 0.155818 2.80986
lowerneck -12.2451 -2.62111 -8.92836
upperneck 40.7378 -3.98452 5.52186
head 17.2824 -2.38528 3.39547
rclavicle -5.43676e-014 2.38542e-015
rhumerus -29.4699 -8.47277 -79.3106
rradius 32.19
rwrist -9.0826
rhand -17.1317 16.0873
rfingers 7.12502
rthumb 9.10828 -13.6961
lclavicle -5.43676e-014 2.38542e-015
lhumerus -30.5213 6.05717 87.4983
lradius 35.9721
lwrist -1.17706
lhand -22.6353 20.2363
lfingers 7.12502
lthumb 3.79527 50.1822
rfemur -13.4301 -14.6992 24.9969
rtibia 32.0073
rfoot -19.3181 -7.96027
rtoes 18.3759
lfemur -15.5025 4.67477 -19.0152
ltibia 31.3268
lfoot -13.6794 -2.26252
ltoes 0.127469
2592
root 19.4644 24.1255 18.4872 722.147 -378.254 -0.578834
lowerback 5.6116 0.324377 -0.389582
upperback 2.85541 0.416272 2.46292
thorax -0.229356 0.182304 2.72767
lowerneck -12.381 -2.72588 -8.87046
upperneck 40.8276 -4.15501 5.48491
head 17.3866 -2.45505 3.33945
rclavicle 5.28767e-014 1.27222e-014
rhumerus -29.2836 -8.60787 -79.3623
rradius 32.3834
rwrist -8.08332
rhand -17.5951 14.5292
rfingers 7.12502
rthumb 8.66112 -15.2731
lclavicle 5.28767e-014 1.27222e-014
lhumerus -30.3217 6.15758 87.585
lradius 35.361
lwrist -1.1514
lhand -23.9527 21.242
lfingers 7.12502
lthumb 2.52304 51.2068
rfemur -13.4645 -13.9943 25.1505
rtibia 31.7747
rfoot -19.1979 -7.93826
rtoes 19.106
lfemur -16.0301 5.08956 -18.916
ltibia 32.1613
lfoot -13.547 -1.9878
ltoes -1.77712
2593
root 19.4665 24.1173 18.4902 722.311 -378.569 -1.41406
lowerback 5.89784 0.199038 0.569852
upperback 2.89278 0.300521 2.65421
thorax -0.340468 0.131407 2.39099
lowerneck -12.4649 -2.77347 -8.75486
upperneck 40.9539 -4.23045 5.36302
head 17.4822 -2.49037 3.25118
rclavicle -3.18055e-015 -1.90833e-014
rhumerus -29.183 -8.49474 -79.4119
rradius 32.6292
rwrist -7.85338
rhand -17.2081 13.273
rfingers 7.12502
rthumb 9.0345 -16.5136
lclavicle -3.18055e-015 -1.90833e-014
lhumerus -30.2777 6.6439 87.5793
lradius 34.8553
lwrist -1.422
lhand -19.2 23.971
lfingers 7.12502
lthumb 7.11209 53.8315
rfemur -13.1991 -14.1902 25.9901
rtibia 31.3933
rfoot -19.2093 -7.43999
rtoes 20.4322
lfemur -16.4126 5.23621 -17.984
ltibia 33.1689
lfoot -13.4525 -2.02702
ltoes -0.0145612
2594
root 19.4577 24.1107 18.4972 722.434 -379.02 -2.04156
lowerback 6.06006 0.113722 1.19234
upperback 2.91216 0.222747 2.7871
thorax -0.405578 0.0964546 2.18272
lowerneck -12.203 -2.74281 -8.83224
upperneck 40.8462 -4.30823 5.63121
head 17.3705 -2.50516 3.37147
rclavicle -1.23246e-014 3.73715e-014
rhumerus -29.317 -8.1326 -79.6261
rradius 32.9222
rwrist -8.43128
rhand -17.6022 13.205
rfingers 7.12502
rthumb 8.65423 -16.5976
lclavicle -1.23246e-014 3.73715e-014
lhumerus -30.3398 7.15077 87.5087
lradius 34.3768
lwrist -1.75182
lhand -17.0613 24.0511
lfingers 7.12502
lthumb 9.1762 53.8314
rfemur -12.9083 -14.6135 26.6347
rtibia 30.9315
rfoot -19.4164 -6.48594
rtoes 22.508
lfemur -16.7701 4.8941 -17.1916
ltibia 34.1943
lfoot -13.8642 -1.53336
ltoes -1.67533
2595
root 19.4473 24.1139 18.5099 722.562 -379.628 -2.64572
lowerback 6.12276 0.0436952 1.71783
upperback 2.97404 0.157083 2.96639
thorax -0.373192 0.0660379 2.07674
lowerneck -11.91 -2.67957 -8.9189
upperneck 40.6233 -4.25673 5.72914
head 17.1663 -2.48822 3.43189
rclavicle 3.3694e-014 -1.35174e-014
rhumerus -29.3072 -7.79031 -79.6681
rradius 32.9894
rwrist -8.93235
rhand -17.7329 13.9349
rfingers 7.12502
rthumb 8.52807 -15.8728
lclavicle 3.3694e-014 -1.35174e-014
lhumerus -30.3992 7.57127 87.5629
lradius 34.016
lwrist -1.97888
lhand -18.5272 23.8808
lfingers 7.12502
lthumb 7.76153 53.7183
rfemur -12.484 -14.1101 27.2512
rtibia 30.3988
rfoot -19.4328 -6.25647
rtoes 23.5051
lfemur -17.0573 4.5627 -16.4394
ltibia 35.1956
lfoot -14.1804 -0.898321
ltoes -4.9529
